<svg xmlns="http://www.w3.org/2000/svg" xmlns:xlink="http://www.w3.org/1999/xlink" id="Layer_2" data-name="Layer 2" viewBox="0 0 1181.55 860"><defs><style>      .cls-1 {        fill: none;      }      .cls-2 {        clip-path: url(#clippath);      }      .cls-3, .cls-4 {        fill: #f1b986;      }      .cls-5, .cls-6 {        fill: #fff;      }      .cls-7, .cls-8 {        fill: #815629;      }      .cls-9 {        fill: #73451d;      }      .cls-10, .cls-11 {        fill: #cf8b54;      }      .cls-12 {        fill: #ab872f;      }      .cls-13 {        fill: #cd805c;      }      .cls-14 {        fill: #231f20;      }      .cls-15 {        fill: #154723;      }      .cls-16 {        fill: #4d311b;      }      .cls-6 {        stroke: #ac872f;        stroke-miterlimit: 10;        stroke-width: 10px;      }      .cls-17 {        clip-path: url(#clippath-1);      }      .cls-18 {        clip-path: url(#clippath-2);      }      .cls-19 {        fill: #0d9046;      }      .cls-19, .cls-20, .cls-11, .cls-8, .cls-4 {        fill-rule: evenodd;      }      .cls-20 {        fill: #154724;      }    </style><clipPath id="clippath"><rect class="cls-1" x="488.71" y="209.41" width="154.64" height="148.79"></rect></clipPath><clipPath id="clippath-1"><rect class="cls-1" x="579.57" y="227.32" width="47.04" height="12.76"></rect></clipPath><clipPath id="clippath-2"><rect class="cls-1" x="507.98" y="227.32" width="46.06" height="12.76"></rect></clipPath><clipPath id="clippath-3"><rect class="cls-1" x="588.52" y="251.55" width="24.53" height="19.1"></rect></clipPath></defs><g id="Layer_1-2" data-name="Layer 1"><g><circle class="cls-6" cx="578.89" cy="430" r="425"></circle><circle class="cls-6" cx="578.89" cy="435.09" r="343.1"></circle><g><g><path class="cls-4" d="M754.42,358.91c-6.67,.3-16.38,.91-22.45-5.16-6.07-6.07-7.28-11.22-7.28-11.22,0,0-12.74,3.03-24.87-6.98-12.13-10.01-15.78-19.72-13.35-23.96,2.43-4.25,5.16-3.94,6.98-2.73,1.82,1.21,6.07,11.83,11.22,14.26,5.16,2.43,18.81,4.85,23.36-.3,4.55-5.16,6.83-12.16,2.28-16.41-8.07-7.53-22.9-11.51-31.7-2.7-5.16,5.16-9.4,4.25-8.8-2.43,1.39-15.34,36.09-23.02,52.03-6.37,1.41-12.21,4.02-39.97,7.06-48.49,2.23-6.27,8.5-5.16,9.71,0,1.21,5.16-4.48,53.35-1.6,54.26,3.46,1.09,21.74-35.38,32.92-42.82,3.92-2.61,8.8-1.21,7.28,2.73-1.52,3.94-28.67,47.38-28.67,49.19s.35,5.14,2.78,4.84c.26-.03,36-21.18,38.33-13.64,1.78,5.76-36.7,26.54-36.7,26.54,0,0-1.37,8.95-6.83,18.96-5.46,10.01-11.68,12.44-11.68,12.44Z"></path><path class="cls-11" d="M737.92,357.48c-2.17-.81-4.21-2-5.95-3.73-6.07-6.07-7.28-11.22-7.28-11.22,0,0-12.74,3.03-24.87-6.98-11.91-9.82-15.64-19.35-13.48-23.72,.44,.96,.91,2.09,1.31,3.28,1.17,3.53,9.79,16.08,17.34,19.43,7.55,3.36,23.07,4.75,23.07,4.75,0,0,12.16,15.94,13.42,16.92,0,0-1.37,.65-3.55,1.26Z"></path><path class="cls-11" d="M744.2,348.14c.76-2.12,0-10.92-3.49-15.93-3.49-5-7.58-6.83-7.58-6.83,0,0,5.76-4.09,11.38,3.64,5.61,7.74-.3,19.11-.3,19.11Z"></path><path class="cls-11" d="M728.03,322.81c-4.55,5.16-18.2,2.73-23.36,.3-5.16-2.43-9.4-13.04-11.22-14.26-.52-.35-1.12-.62-1.76-.73,1.03,.49,.16,5.55,3.09,9.47,2.94,3.91,7.97,8.67,19.57,11.46,11.6,2.8,14.68-.28,18.73-6.85,4.05-6.57,3.49-14.68-2.52-21.53-6.01-6.85-18.88-7.27-27.4-4.05-8.53,3.22-11.08,10.31-11.08,10.31,1.63,.39,3.96-.68,6.52-3.23,8.8-8.8,23.63-4.83,31.7,2.7,4.55,4.25,2.27,11.25-2.28,16.41Z"></path><path class="cls-11" d="M809.63,300.97c-2.33-7.55-38.07,13.6-38.33,13.63-2.43,.31-2.77-3.01-2.77-4.84s27.15-45.25,28.67-49.19c1.52-3.94-3.36-5.34-7.28-2.73-11.18,7.44-29.47,43.92-32.92,42.82-2.88-.91,2.81-49.1,1.6-54.25-1.21-5.16-7.48-6.27-9.71,0-3.04,8.52-5.65,36.28-7.06,48.49l2.02,3.64s4.4-45.86,5.45-49.7c1.05-3.85,2.79-5.94,4.68-5.66,1.89,.28,3.64,3.21,3.71,4.33s-3.5,42.78-3.36,47.82c.14,5.03,0,6.99,2.03,7.34,2.03,.35,3.92-1.89,5.03-3.15,1.12-1.26,21.88-34.74,25.45-37.82,3.56-3.07,5.8-5.73,7.83-4.12,2.03,1.61,2.37,2.38,.77,4.33-1.61,1.96-26.36,43.27-27.69,46.07-1.32,2.8-.84,5.8,.28,7.41s2.94,1.33,3.64,.91c.7-.42,26.07-13.77,29.64-15.03,3.56-1.26,7.5-1.88,7.55,.07,0,1.98-37.26,24.68-37.26,24.68,0,0-5.52,14.05-8.18,19.22-.55,1.07-1.09,2.06-1.59,2.95,0,0,0,.01-.01,.01-.05,.1-.11,.2-.17,.3-1.86,3.23-3.26,5.13-3.26,5.13,0,0-1.39,1.32-2.61,2.64-1.16,1.25-2.17,2.51-1.69,2.65h.09c.07,.03,.14,.02,.24,0,.01,0,.01-.01,.02-.01,.02-.01,.03-.02,.05-.02,.56-.3,1.1-.6,1.6-.92,.19-.11,.39-.24,.58-.35,.02-.02,.03-.03,.05-.04,.12-.08,.24-.16,.35-.24,2.67-1.83,4.45-3.87,5.92-6,.04-.05,.08-.1,.11-.15,.78-1.13,1.48-2.28,2.2-3.43,.06-.1,.12-.21,.19-.31,.2-.32,.4-.65,.61-.97,.41-.63,.83-1.48,1.27-2.45,.01-.03,.03-.06,.04-.09,.03-.06,.06-.13,.09-.19,2.45-5.57,5.09-15.05,5.4-16.13,0-.02,.01-.04,.01-.05,.01-.03,.01-.05,.01-.05,0,0,38.49-20.78,36.71-26.54Z"></path></g><path class="cls-4" d="M538.45,361.34c.25,1.56-1.37,12.29,.3,13.5,1.67,1.21,21.95,10.2,25.61,10.73,3.66,.53,9.12-1.32,11.32-3.15,2.2-1.82,5.69-5.46,5.69-5.46l2.12-18.71s-45.03,3.24-45.05,3.08Z"></path><g><path class="cls-19" d="M742.91,459.03c-23.23,2.13-48.73-1.73-70.41-13.02-3.97-2.07-7.8-4.38-11.47-6.96-.39-.26-.78-.54-1.17-.82-.78,6.16-1.53,12.18-2.33,18.4-.61,4.73-1.25,9.58-1.95,14.68h-165.79c-1.49-11.88-2.17-22.51-1.38-30.43,.01-.14,.02-.28,.04-.42-.01,.01-.03,.02-.04,.04-1.59,1.43-3.2,2.85-4.83,4.26h-.01c-1.09,.94-2.18,1.88-3.29,2.82-.55,.47-1.11,.95-1.67,1.4-5.58,4.64-11.3,9.07-16.99,13.13-.25,.18-.51,.36-.76,.54-3.08,2.19-6.15,4.26-9.18,6.2-1.33,.85-2.66,1.67-3.97,2.46h-15.05c-3.79-9.67-7-19.49-10.62-29.03-.6-1.59-1.21-3.16-1.83-4.73-.09-.21-.17-.42-.25-.62-.26-.64-.52-1.27-.78-1.9-.03-.08-.06-.15-.1-.22h0c-.07-.19-.14-.37-.22-.55,1.65-1.55,3.45-3.48,5.38-5.64,1.39-1.56,2.84-3.25,4.35-4.99,.58-.67,1.17-1.34,1.76-2.03,.08-.1,.17-.2,.27-.3,5.43-6.26,11.46-13.02,17.66-17.88,1.11-.87,2.27-1.76,3.48-2.69,0-.01,.02-.02,.03-.02,15.53-11.86,38.86-27.74,50.4-30.51,.42-.11,.82-.19,1.2-.25,.19-.03,.38-.06,.56-.08,.19-.03,.37-.05,.54-.06,.13-.06,.25-.14,.38-.18,.22-.07,.46-.15,.7-.22,.38-.11,.77-.23,1.2-.35,.25-.07,.5-.14,.77-.21,.48-.13,.98-.25,1.51-.38,1.56-.38,3.34-.78,5.31-1.19,.65-.13,1.31-.27,1.99-.41,1.36-.27,2.81-.55,4.31-.84,.5-.09,1.01-.19,1.52-.28,.52-.09,1.04-.19,1.57-.28h.01c.93-.18,1.86-.34,2.81-.51,3.77-.67,7.77-1.35,11.86-2.02,3.76-.61,7.59-1.22,11.36-1.8,.53-.08,1.05-.16,1.58-.24h.01c1.47-.24,2.93-.46,4.37-.68h.02c14.15-2.14,26.56-3.87,30.34-4.39,.77-.1,1.18-.16,1.18-.16,0,0,.76,.08,2.09,.22,1.77,.2,4.55,.51,7.94,.92,.53,.06,1.08,.12,1.64,.19,.23,.03,.46,.06,.7,.09,2.02,.25,4.19,.53,6.45,.83,.45,.06,.91,.12,1.37,.18s.92,.12,1.39,.19c3.4,.46,6.92,.97,10.35,1.52,.65,.1,1.3,.2,1.94,.31,6.63,1.1,12.74,2.32,16.7,3.57,.49-.01,1,0,1.51,.03,.3,.02,.6,.05,.91,.09,9.57,1.23,24.11,10.39,37.48,20.65,1.98,1.53,3.94,3.08,5.87,4.65,.83,.66,1.65,1.34,2.46,2.01,.81,.67,1.61,1.34,2.41,2.01,.38,.32,.77,.65,1.14,.98,11.3,9.77,18.43,18.91,26.23,19.65h.03c.25,.03,.5,.04,.75,.05,19.7,.45,7.68-60.83,13.05-60.37,.27,.02,.6,.03,1,.01,.15,0,.3-.01,.47-.02,.98-.05,2.25-.18,3.72-.37,1.06-.14,2.23-.31,3.47-.5,7.46-1.16,17.56-3.16,23.46-4.36,.21-.04,.41-.09,.6-.13,.35-.07,.69-.14,1-.2,.15-.03,.3-.06,.45-.09,.36-.08,.69-.15,.99-.21,.23-.05,.44-.09,.63-.13,.03,0,.05-.01,.08-.01,.69-.15,1.07-.23,1.07-.23,0,0,1.05,9.84,1.56,23.68,.05,1.43,.1,2.91,.14,4.42,.05,1.92,.09,3.9,.11,5.93,.33,32.15-3.34,75.76-25.54,77.8Z"></path><path class="cls-20" d="M637.87,363.69c-8.86-2.8-28.52-5.44-40.55-6.88-2.3,2.87-4.03,5.1-4.03,5.1,0,0,39.71,3.91,53.41,13.98,13.7,10.07,45.02,37.47,58.16,43.06,13.14,5.59,23.77,9.23,23.77,9.23,0,0-4.2-9.23-1.68-10.91,2.52-1.68,8.39-29.92,8.67-44.46,.18-9.3-.33-16.08-.72-19.76-2.37,.31-4.22,.46-5.2,.38-5.37-.45,6.65,60.82-13.05,60.38-8-.18-16.39-10.8-28.14-20.68-17.18-14.43-38.46-29.79-50.64-29.44Z"></path><path class="cls-20" d="M742.91,459.3c-30.04,2.06-49.74-1.94-70.41-13.29-3.77-2.07-7.56-4.38-11.47-6.96-.39-.25-.78-.51-1.17-.77-.64,5.74-1.44,11.91-2.33,18.35-.66,4.76-1.37,9.67-2.1,14.68h-8.69c3.06-25.57,5.65-45.68,5.65-45.68l4.7,2.53s53.91,27.93,76.03,24.73c15.42-2.23,18.8-6.84,25.79-27.81,1.65-4.94,2.28-11.72,2.28-19.21,0-16.7-3.13-36.88-5.09-47.87,0-.01-.01-.02-.01-.04-.11-.59-.21-1.15-.31-1.69-.72-3.96-1.22-6.35-1.22-6.35,2.66-.52,5.1-1.01,7.09-1.42,1.53-.31,2.78-.57,3.65-.75,.03-.01,.06-.02,.09-.02,.8-.17,1.25-.26,1.25-.26,0,0,1.26,11.84,1.7,27.83,.05,1.92,.09,3.9,.11,5.93,.4,32.36-3.19,76.54-25.54,78.07Z"></path><path class="cls-20" d="M488.41,440.47c-1.59,1.43-3.2,2.86-4.83,4.29h-.01c-1.09,.94-2.18,1.88-3.29,2.82-.55,.47-1.11,.95-1.67,1.4-5.54,4.67-11.21,9.15-16.85,13.28-.01,0-.01,.01-.02,.01-3.38,2.48-6.75,4.83-10.08,7.02-1.05,.69-2.09,1.37-3.13,2.02h-13.15c2.85-1.64,5.8-3.49,8.77-5.47,3.46-2.3,6.96-4.78,10.36-7.29,.05-.03,.11-.07,.16-.12,15.05-11.1,28.3-22.8,29.51-23.34,2.51-1.12,12.57-6.91,12.57-6.91,0,0-1.02,18.36,.9,43.13h-7.58c-1.11-10.48-1.75-20.67-1.66-30.43v-.41Z"></path><path class="cls-20" d="M532.99,353.53c-2.42,2.43-7.04,12.82-7.04,12.82,1.47,7.51,10.5,14.75,27.51,16.89h0c1.59,.9,12.67,3.66,12.67,3.66l3.79-1.59c-4.74-1.19-8.97-1.83-13.1-3.58,.86-4.94,3.06-18.19,1.95-18.19-1.36,0-25.79-10.01-25.79-10.01Z"></path><path class="cls-20" d="M603.36,365.9c-1.31,6.7-3.61,13.03-20.23,19.76-11.58,4.79-41.7,21.63-58.34,30.24l1.52,55.41h-6.39l-1.56-58.41,47.59-26.05,2.78-1.52,.4-.21,3.68-2.02s-1.38-7.57-2.12-13.4c-.46-3.65-.68-6.61-.15-6.61,.66,0,6.83-2.38,12.95-4.83,.85-.34,1.69-.68,2.52-1.01,1.17-.47,2.3-.93,3.37-1.36,3.95-1.6,6.94-2.82,6.94-2.82,.74,.74,1.68,2.23,2.64,3.93,0,.01,.01,.01,.01,.01,1.1,1.97,2.22,4.23,3.05,5.98,.8,1.7,1.34,2.91,1.34,2.91Z"></path><path class="cls-20" d="M525.94,366.35c-.75-.29-1.48-.58-2.2-.89-8.39,1.53-15.33,2.99-18.87,4.17-.13,.04-.25,.12-.38,.18-9.52,.78-34.69,15.57-52.73,30.92-16.46,14-26.41,26.58-32.68,34.08,.76,1.82,1.5,3.65,2.21,5.5,6.44-6.17,25.39-24.17,35.27-31.86,14.94-11.62,43.33-32.28,49.76-33.4,4.09-.71,14.32-2.98,21.24-4.53-.81-1.36-1.35-2.76-1.63-4.16Z"></path></g><g><path class="cls-19" d="M458.3,462.35c-3.46,1.53-5.81,3.08-6.36,4.81-.02,.07-.04,.15-.06,.22-.11,.47-.17,.96-.2,1.47-.01,.15-.02,.29-.02,.44-.01,.64,.03,1.32,.14,2.02h-42.54c-.08-.42-.14-.85-.19-1.28-.18-1.34-.34-2.7-.46-4.08-.35-3.88-.47-7.93-.32-12.15,.01-.18,.03-.37,.06-.57,.33-2.85,1.52-5.86,3.44-8.97,.02-.04,.05-.09,.07-.13,1.83-2.96,4.31-6.01,7.31-9.1h.01c1.61-1.67,3.39-3.35,5.3-5.03,1.22,1.27,2.46,2.53,3.7,3.77h.01c8.59,8.56,17.75,16.39,26.24,24.7,.03,.03,.05,.05,.08,.08,1.28,1.25,2.54,2.52,3.79,3.8Z"></path><path class="cls-20" d="M428.59,423.63c2.81,2.97,.63,3.55,3.6,6.37-1.4,1.08-2.72,2.35-3.97,3.73-.01,0-.02,.02-.03,.04h-.01c-2.36,2.62-4.43,5.65-6.14,8.51-2.87,4.77-4.75,9.08-5.31,10.3-1.72,3.7-1.66,10.65,.21,18.73h-7.68c-.08-.42-.14-.85-.19-1.28-.19-1.34-.34-2.7-.46-4.08-.35-3.88-.47-7.93-.32-12.15,.19-2.5,1.49-5.86,3.5-9.54,.02-.04,.05-.09,.07-.13,3.85-6.99,10.27-15.09,16.69-20.51t.02-.02s.02,.02,.02,.03Z"></path><path class="cls-20" d="M461.76,462.26s-.01,.01-.02,.01c-.28,.13-.57,.25-.88,.38-3.33,1.35-8.15,2.58-8.92,4.51-.02,.07-.04,.15-.06,.22-.11,.47-.17,.96-.2,1.47-.01,.15-.02,.29-.02,.44-.01,.64,.03,1.32,.14,2.02h-6.89c-.36-2.33-.5-4.12-.76-5.47-.23-1.2-.54-2.06-1.17-2.65-1.73-1.64-5.9-8.28-4.61-7.73,1.28,.55,12.49,3.48,12.49,3.48,0,0,1.74-.18,3.57-.47,.08-.01,.16-.02,.24-.04,1.32-.21,2.64-.49,3.37-.8,3.23,4.44,2.41,3.32,3.58,4.48,.04,.04,.09,.09,.14,.15Z"></path></g><g><path class="cls-3" d="M586.99,343.68c-.4,3.62-.85,12.64-1.19,16.27-1.02,1.78-8.99,6.9-12.76,8.92-4.13,2.23-13.01,1.11-16.92-1.47-1.82-1.2-4.59-1.75-7.07-7.96-.58-5.23-1.13-15.74-1.5-21,10.42,1.98,29.2,4.06,39.44,5.23h0Z"></path><path class="cls-3" d="M484.07,251.98c3.36,.71,6.09,3.07,8.61,5.4-.82-6.68-1.64-13.36-2.46-20.05-.98-8.02-1.97-16.12-1.3-24.17,1.76-21.11,16.2-41.02,36.24-47.93,10.74-3.7,52.08-14.45,89.08,4.42,16.2,8.27,27.28,27.66,31.74,45.3,3.69,14.58,.83,29.93-2.95,44.53,2.54-1.94,5.17-3.9,8.25-4.73,3.13-.84,6.88-.24,8.88,2.3,2.1,2.66,1.71,6.47,1,9.78-2.58,12.02-8.08,23.41-15.89,32.9-2.7,3.28-6.52,4.63-10.22,2.54-.72-3.1-2.92,18.18-7.7,24.15-3.89,4.86-46.38,25.91-62.9,31.58-3.62,1.24-57.73-30.39-60.91-36.76-2.47-4.94-3.83-18.34-4.91-23.75-.53-2.65-3.83,4.92-7.96-.53-1.98-2.61-15-19.27-15-38.62,0-5.97,5.03-7.07,8.39-6.37h0Z"></path><g class="cls-2"><path class="cls-10" d="M488.93,213.16c.1-1.26,.26-2.51,.45-3.75,2.5,6.94,13.59,103.42,18.16,111.05,4,6.69,10.61,9.32,17.16,13.41,8.49,5.29,17.25,10.13,25.9,15.13,2.55,1.48,9.11,4.2,13.47,6.5,11.99-3.65,48.41-20.46,58.13-28.27,8.38-6.74,17.45-59.72,21.14-74.1,.43,.02-10.97,67.94-15.96,73.31-7.84,8.42-61.63,31.13-61.63,31.13,0,0-.86,.31-1.27,.45-.74,.26-.58,.54-4.29-1.29-13.64-5.93-53.89-30-56.62-35.47-.43-.86-.82-1.96-1.18-3.23-2.71-20.31-11.33-74-12.15-80.68-.98-8.02-1.97-16.12-1.3-24.17"></path></g><path class="cls-10" d="M481.17,266.81c.3-.92,1.63-1.1,2.56-.84,.93,.26,7.62,5.99,8.22,8.44-2.27-9.62-10.33-17.43-9.69-16.92,8.16,6.44,11.94,15.79,14.59,29.85,.18,.97-3.84-14.26-11.89-18.5-.7-.37-1.46-.92-2.18-.58-.55,.26-.81,.9-.93,1.5-.19,.93-.2,1.9-.01,2.83-.51-1.32-1.47-3.28-.66-5.78h0Z"></path><path class="cls-10" d="M654.99,270.39c-.3-.92-1.62-1.1-2.56-.84-.93,.26-7.62,5.99-8.22,8.44,2.27-9.62,10.34-17.43,9.69-16.92-8.16,6.44-11.94,15.79-14.59,29.85-.18,.97,3.84-14.26,11.89-18.5,.7-.37,1.46-.92,2.18-.58,.55,.26,.8,.9,.93,1.5,.19,.93,.19,1.9,.01,2.83,.51-1.32,1.47-3.29,.66-5.78h0Z"></path><path class="cls-10" d="M554.17,240.7c7.09,9.13,7.51,33.73,4.99,44.85,.77,.24-2.91,4.26-7.52,10.65-2.59,3.58,7.76,22.92,29.26,3.61,5.15-4.63-6.87-13.61-10.54-14.64-1.45-.41-1.22-2.7-1.32-4.2-.41-6.93-.81-13.91,.17-20.78,.98-6.87,5.17-16.26,9.86-21.37-5.34,6.01-10.13,13-11.67,24.19-1.1,7.97-.09,15.02,.25,23.05,6.64,2.66,10.46,6.37,11.91,12.28-5.84,5.44-16.45,8-26.01-1.82,.87-2.06,4.75-5.13,7.19-10.72-.92-4.09,2.57-18.06,1.33-25.22-2.59-14.86-8.75-20.41-7.91-19.9h0Z"></path><path class="cls-7" d="M589.11,227.23c.93-.05,1.66,.67,1.87,1.57,.73-1.4,2.66-1.5,4.24-1.41,2,.11,4,.23,6,.34,3.8,.22,7.64,.44,11.29,1.52,4.09,1.21,10.38,6.21,13.33,9.29,.68,.71-8.15,.55-10.94,.38-9.9-.62-19.85-.28-29.68,1.01-1.88,.25-4.21,.33-5.21-1.28-.42-.68-.49-1.51-.44-2.31,.27-4.83,4.78-8.88,9.53-9.12h0Z"></path><path class="cls-7" d="M542.15,227.43c.4,.32,.59,.88,.47,1.37-.73-1.4-2.67-1.5-4.24-1.41-2,.11-4,.23-6,.34-3.8,.21-7.64,.44-11.29,1.52-4.09,1.21-13.21,8.74-13.22,9.29-.01,1.04,8.52,.52,10.82,.38,9.9-.62,19.85-.28,29.68,1.01,1.88,.25,4.21,.33,5.21-1.28,.42-.68,.49-1.51,.44-2.31-.31-5.63-6.38-10.19-11.87-8.92h0Z"></path><g class="cls-17"><path class="cls-9" d="M579.58,236.36c.03-.53,.12-1.04,.25-1.55,.56,1.88,0,3.94,4.81,3.09,25.49-4.5,37.35,1.69,33.58-2.25-2.92-3.05-7.03-5.71-14.6-6.1-5.05-.27-9.95-.03-14.74,1.62,.03-.76,.05-1.51,.08-2.27-3.16,.69-6.11,2.27-8.45,4.5,.99-1.92,2.31-3.71,4.19-4.82,1.05-.63,2.26-1.06,3.48-1.24,.54-.08,3.02,.3,3.27,.1-.4,.32-.59,.88-.47,1.37,.73-1.4,2.66-1.5,4.24-1.41,2,.11,4,.23,6,.34,3.8,.21,7.65,.44,11.3,1.52,4.09,1.21,7.85,3.51,10.8,6.59,.38,.4,3.28,2.52,3.29,3.08,.01,1.04-3.76-.09-4.79,.04-2.29,.3-4.61,.11-6.91-.04-9.9-.62-19.85-.28-29.68,1.01-1.88,.25-4.21,.33-5.21-1.28-.42-.68-.49-1.51-.44-2.31"></path></g><g class="cls-18"><path class="cls-9" d="M554.02,236.36c-.03-.53-.13-1.04-.25-1.55-.56,1.88,0,3.94-4.81,3.09-25.48-4.5-37.35,1.69-33.58-2.25,2.92-3.05,7.03-5.71,14.6-6.1,5.06-.27,9.95-.03,14.74,1.62-.03-.76-.06-1.51-.08-2.27,3.15,.69,6.11,2.27,8.45,4.5-.99-1.92-2.31-3.71-4.19-4.82-1.06-.63-2.26-1.06-3.48-1.24-.54-.08-3.02,.3-3.27,.1,.4,.32,.59,.88,.47,1.37-.73-1.4-2.67-1.5-4.24-1.41-2,.11-4,.23-6,.34-3.8,.21-7.64,.44-11.29,1.52-4.09,1.21-14.06,9.15-13.03,9.29,2.29,.3,8.33,.52,10.63,.38,9.9-.62,19.85-.28,29.68,1.01,1.88,.25,4.21,.33,5.21-1.28,.42-.68,.49-1.51,.44-2.31"></path></g><path class="cls-5" d="M570.76,333.74c-5.98-.49-10.94-1.22-15.11-4.92-4.17-3.7-8.2-4.91-11.49-9.59-2.23-3.17-4.46-6.34-6.7-9.51,11.48,5.25,20.21,6.27,32.39,6.27s21.54-3.1,31.73-10.18c-3.91,9.09-12.54,17.62-17.53,22.55-4.15,4.09-13.29,5.39-13.29,5.39Z"></path><path class="cls-13" d="M571.1,313.27c-10.35,.04-23.74-.29-33.64-3.56-.74-.24,4.22,2.68,5.38,3.06,9.73,3.21,18.37,3.33,28.35,3.21,10.76-.13,21.58-3.61,30.4-10.18,0,0-21.02,8.1-30.49,7.47Z"></path><path class="cls-13" d="M570.05,328.91c-21.76,1.36-32.22-18.7-32.02-18.31,4.12,8.08,15.52,25.5,32.89,23.99,12.51-1.09,29.85-21.59,30.66-28.79,0,0-12.05,15.94-31.53,23.11Z"></path><path class="cls-5" d="M619.66,261.24c.25-4.95-8.35-10.43-19.44-9.56-2.89,.23-9.13,1.6-11.99,4-2.77,2.33-4.45,10.13-5.21,14.03-1.31,6.68,36.25-.74,36.64-8.46h0Z"></path><path class="cls-16" d="M608.92,255.9h.23c.76-.03,2.64,.94,3.3,1.26,1.04-.89,.44-3.46,.24-3.89-4.68-2.18-15.58-2.52-21.38,.37-1.15,.58-3.12,5.21-2.75,7.52,2.57,16.12,22.91,7.82,23.98,3.18-.48,.24-7.22,1.77-7.99-3.25-.42-2.75,1.79-5.11,4.36-5.19h0Z"></path><path class="cls-14" d="M620.46,263.23c-.48-2.35,.06-5.94-3.37-8.42-3.1-2.25-8.57-3.56-13.7-3.81-1.07-.05-2.1,0-3.08,.14-9.03,1.11-18.33,2.62-17.55,20.15,.03,.73,2.98-12.4,5.77-14.68,7.14-5.82,20.77-4.28,25.97-.91,4.09,2.65,6.03,7.87,5.96,7.53h0Z"></path><path class="cls-5" d="M517.12,260.49c-.05-5.55,9.11-11.08,19.93-9.06,2.71,.51,8.3,2.52,10.51,5.28,2.08,2.6,3.06,10.42,3.11,14.15,.09,6.15-33.48-2.14-33.55-10.37h0Z"></path><path class="cls-16" d="M542.7,256.84h.24c.79,.06,2.66,1.36,3.33,1.81,1.22-.94,.86-4.03,.69-4.56-4.75-2.9-15.17-3.82-20.22-1.03-.95,.52-2.6,5.03-2.36,7.32,1.6,15.32,19.96,12.76,21.22,6.38-.52,.19-7.25,.73-7.61-4.65-.2-3.02,2.12-5.41,4.71-5.26h0Z"></path><path class="cls-14" d="M516.52,263.64c.58-2.53-.12-7.61,3.54-10.15,3.32-2.31,8.94-3.31,14.02-3.11,1.04,.04,2.03,.21,2.96,.44,8.29,2.01,16.96,4.85,13.52,22.06-.14,.67,.15-11.28-3.4-15.22-5.95-6.61-19.48-6.32-24.95-2.96-4.3,2.65-5.77,9.3-5.69,8.94h0Z"></path><path class="cls-8" d="M672.55,209c-1.6-4.3-4.6-8.18-7.67-11.72-5.87-6.74-12.29-12.98-18.7-19.22-2.32-2.26-4.65-4.52-7.17-6.58-3.11-2.54-6.76-2.66-10.26-4.06,.75-5.46-.05-10.51-3.03-15.25-2.92-4.64-7.19-8.26-11.6-11.52,2.33,3.15,4.08,6.73,5.12,10.51-6.65-5.31-14.21-9.48-22.25-12.27,2.68,1.73,4.94,4.09,6.54,6.84-1.5-2.56-8.89-5.48-11.56-6.81-3.87-1.92-7.93-2.67-12.29-2.98-.8-.06-1.61,.15-2.92,.29,.98,.62,1.47,.93,2.28,1.43-12.08-.96-23.83-1.89-35.75-2.83,1.71,1.4,5.87,4.82,5.83,5.15-3.33-.07-7.66-.51-11-.53-.8,0-1.58,.31-2.38,.48,.42,.79,.85,1.58,1.28,2.36,.09,.16,.2,.31,.64,.98-1.54-.55-2.63-1-3.74-1.32-.85-.25-1.74-.33-2.61-.48-.03,.88-.05,1.75-.1,2.88-3.8-.69-12.75-3.25-13.32-3.36,.01,.61,2.02,4.91,3.15,6.68-6.56,.92-23.06,3.12-23.83,3.29,.57,.53,1.13,1.06,1.7,1.59,.18,.17,.36,.33,.54,.5-.02,.19-.05,.38-.07,.58-2.9-.37-10.34-1.09-11.17-1.07,.18,.84,1.39,4.23,1.81,5.07-1.06-.02-2.12-.04-3.33-.06,1.25,2.19,2.28,3.98,3.46,6.04-2.36,.43-8.67,1.81-8.08,3.33,1.49,3.87,8.08,13.84,8.46,14.22,1.41,1.41-15.36,13.88-18.8,19.6,1.04-.88,2.55-1.2,3.86-.8,1.61,.49,.02,9.29-.3,10.47-.87,3.22-2.12,6.45-3.62,9.42,1.13-.64,2.43-.97,3.72-.96l-1.53,8.08c1.31-1.58,3.05-2.81,4.99-3.54-.84,4.9-2.47,9.67-4.81,14.07,1.1-.74,2.42-1.16,3.75-1.19-.45,2.39-1.33,4.7-2.59,6.8,1.67,.7,2.6,2.52,2.73,4.29,.13,1.77-.4,3.52-.92,5.23,13.16-4,18.6,20.85,20.46,23.68,.9-4.18,.05-8.34,.66-12.57,1.4-9.67-.85-19.47-.42-29.22,.23-5.22,1.89-8.21,4.97-12.25,2.15-2.81,2.26-6.17,2.86-9.54,.57-3.19,1.14-6.43,1.81-9.66,1.3-6.32,7.99-9.95,13.99-7.59,14.68,5.79,40.64,8.48,42.57,9.08,1.86,.58,31.4-4.82,47.02-11.06,4.63-1.85,9.71,1.31,10.11,6.28,.62,7.61,1,16.74,1.42,18.22,.31,1.09,.37,2.24,.67,3.32,.44,1.56,1.72,2.48,2.71,3.66,2.84,3.36,5.45,6.92,7.8,10.59,.94,1.46,.34,5.08,.37,6.7,.07,4.69,.04,9.38,0,14.06-.04,5.42-.11,10.83-.19,16.25-.05,3.45-.11,6.89-.17,10.34,0,.08,0,.17,.01,.25,.13,.75,.98,3.25,.92,3.37,5.14-10.78,6.55-25.88,17.49-31.04,5.39-2.55,7.96,2.27,9.25,3.23,.21-3.38,.43-7.73,.64-11.11l4.16,6.05c.63-8.22,.26-16.51-1.09-24.64,.99,.09,1.92,.64,2.46,1.46l-1.12-13.82c1.25,1.15,2.3,2.51,3.1,4-.04-3.19-.33-6.38-.86-9.53l5.14,3.22c-.1-1.87-.52-3.66-1.16-5.38h0Z"></path><path class="cls-14" d="M498.93,186.2c-.17,.42-5.62-2.94-5.79-2.52-2.37-1.19-12.25,10.37-12.94,15.09,3.47-4.69,7.95-8.62,13.04-11.45l-5.48,9.33c2.2-1.67,4.39-3.34,6.59-5.01-1.01,2.21-2.03,4.41-3.04,6.62,1.39-1.55,3.06-2.85,4.9-3.82-.8,1.59-1.61,3.18-2.41,4.77,1.7-1.61,3.4-3.21,5.11-4.82l-1.52,4.64c.99-1.54,2.39-2.8,4.02-3.62-.58,1.38-1.17,2.77-1.75,4.15,1.56-2.52,3.63-4.72,6.05-6.42-1.59,2.04-2.75,4.41-3.39,6.91,1.17-1.68,2.36-3.37,3.92-4.7,3.71-3.16,6.26-1.83,10.05-.29,4.37,1.77,9.6,2.18,14.16,3.41,11.85,3.17,25.63,7.44,38.04,6.16,2-.21,41.94-10.51,46.2-13.64-.12,.05,7.24,8.81,7.28,12.59,.12-1.58,.24-3.15,.36-4.73,.17-2.21,.39-4.66-.25-6.82-.43-1.48-.83-4.33-.79-4.78,2.33-.48,4.29,1.73,5.58,3.74,1.11,1.73,2.15,3.5,3.12,5.31-.99-3.12-1.98-6.23-2.97-9.35,1.46,1.62,2.56,3.57,3.18,5.67-.96-3.68-1.92-7.36-2.89-11.04,3.15,3.25,5.83,6.95,7.93,10.96-1.06-2.54-2.12-5.07-3.17-7.6,.47,.77,.95,1.53,1.43,2.3-1.18-2.74-2.21-5.55-3.09-8.4,2.66,4.06,5.06,8.29,7.18,12.66-1.61-3.66-2.98-7.42-4.11-11.26,2.45,2.26,4.9,4.52,7.36,6.78-2.43-3.56-4.86-7.12-7.29-10.68,1.41,1.12,2.81,2.23,4.21,3.35-1.55-2.4-3.35-4.65-5.35-6.7,2.38,1.08,4.56,2.58,6.41,4.42-2.22-2.18-4.43-4.35-6.66-6.53,2.47,.24,4.88,1.09,6.96,2.45-3.13-2.46-7.04-3.91-11.01-4.1-.46,.52-.72,1.19-.98,1.84-1.77,4.57-3.53,9.13-5.29,13.7-.21-.48-.66-1.75-.66-1.75,.18-2.58-.19-5.23-.87-7.75-.71-2.65-1.79-5.3-3.76-7.21,.93,4.38,1.09,8.92,.5,13.35-2.86-9.28-8.8-17.59-16.69-23.25,6.04,8.17,10.15,17.75,11.9,27.76-1.11-3.99-3.31-7.68-6.3-10.55,1.67,4.9,2.76,9.99,3.25,15.15-5.27-11.8-11.6-24.66-23.58-29.51,7.54,8.48,15.45,17.74,16.62,29.03-1.66-2.86-3.71-5.49-6.07-7.79,.03,1.56,.06,3.12,.08,4.68-1.88-3.35-3.77-6.69-5.65-10.04,.92,5.4,1.84,10.79,2.76,16.19-1.91-3.72-3.83-7.43-5.74-11.15,.5,4.7,.54,9.45,.1,14.16-.7-16.58-8.69-28.36-21.4-37.55,9.06,13.59,12.77,24.15,15.03,38.65-1.68-2.87-3.35-5.75-5.03-8.62,.35,2.52,.7,5.03,1.05,7.55-5.35-11.38-13.53-21.41-23.59-28.95,3.92,5.17,7.64,10.48,11.16,15.93-6.95-8.6-15.82-15.64-25.82-20.35,12.6,9.75,25.08,21.46,28.86,36.94-4.19-6.49-8.97-12.6-14.27-18.22,3.7,5.78,6.86,11.91,9.41,18.28-10.17-12.71-20.15-25.58-29.95-38.59,5.71,12.53,11.43,25.06,17.14,37.59-4.1-5.02-8.44-9.85-13.01-14.45,2.2,4.62,4.97,8.96,8.23,12.89-10.12-9.73-19.01-20.74-26.39-32.68,5.51,13.97,14.33,26.63,25.53,36.64-8.19-4.59-15.77-10.25-22.49-16.79,1.81,4.41,4.66,8.38,8.25,11.51-10.85-6.54-20.26-15.45-27.37-25.93,.79,7.67,2.28,13.62,7.01,19.58-11.33-.98-22.44-11.95-26.53-22.05,2.11,5.2,4.64,10.3,8.25,14.6,5.96,7.11,14.14,10.31,22.74,12.58l-15.66-8.43Z"></path></g></g><rect class="cls-5" y="471.15" width="1181.55" height="277.13"></rect><g><path class="cls-15" d="M100.52,548.56c0,14.53-4.62,26.33-13.87,35.4-7.84,7.66-16.29,11.49-25.36,11.49l-35.79-.13,14.79-7.4v-79.91l-14.79-6.08,32.89,.92c3.52,.09,8.19,1.5,14,4.23,7.75,3.61,14,8.37,18.76,14.26,6.25,7.75,9.38,16.82,9.38,27.21Zm-18.1,0c0-10.3-2.48-19.86-7.44-28.66-4.79-8.28-9.53-12.42-14.22-12.42h-2.64l2.64,85.06h1.72c3.96,0,8.1-3.83,12.42-11.49,5.02-9.07,7.53-19.9,7.53-32.49Z"></path><path class="cls-15" d="M171.18,590.56l-12.94-4.89c-5.11,7.49-10.7,11.23-16.77,11.23-7.57,0-14.18-2.86-19.81-8.59-7.13-7.13-10.7-17.52-10.7-31.17,0-11.45,3.61-21.4,10.83-29.85,6.52-7.66,13.29-11.49,20.34-11.49s12.46,3.66,17.3,10.96c5.02,7.66,7.53,17,7.53,28,0,.62-.09,2.64-.26,6.08l-35.66-4.23c0,24.22,3.92,36.32,11.76,36.32,2.02,0,4.71-1.12,8.06-3.37,3.35-2.25,5.55-4.64,6.6-7.2l1.85-16.64,4.89,13.61,7,11.23Zm-20.61-36.59c.62-3.51,.92-7.81,.92-12.9,0-14.82-3.08-22.24-9.25-22.24-2.73,0-5.28,3.18-7.66,9.54-2.38,6.36-3.57,13.09-3.57,20.2l19.55,5.4Z"></path><path class="cls-15" d="M217.15,596.51l-3.3-7.4c-1.41,2.03-3.99,3.99-7.73,5.88-3.74,1.89-7.02,2.84-9.84,2.84-9.33,0-13.74-5.59-13.21-16.77l2.77-52.17-7.87,.53-5.47,9.11,1.98-10.3-1.45-12.81,4.89,9.25h7.93l1.06-19.94-11.09-6.47,14.53,2.11,20.47-4.49-9.11,7.98,.4,20.15h7.13l5.68-10.83-1.45,13.6v15.45l-4.81-14.66-6.55,.4,1.72,52.82c.09,3.35,.17,5.3,.26,5.83,.43,1.59,1.61,2.38,3.53,2.38,2.53,0,5.53-5.9,9.02-17.7l-.53,13.21,1.06,12.02Z"></path><path class="cls-15" d="M327.7,520.69l-13.08,4.49-2.11,76.74c-.26,8.54-3.35,14.93-9.25,19.15-4.14,2.91-8.45,4.36-12.94,4.36-5.9,0-9.95-2.03-12.15-6.08l-7.4,3.04,7.66-10.3,6.74-12.15-2.51,12.68c-.44,6.87,1.67,10.3,6.34,10.3,2.29,0,4.01-2.69,5.15-8.06,.79-4.14,1.1-8.01,.92-11.62l-.66-8.98c-2.2,1.94-5.33,2.91-9.38,2.91-5.99,0-11.84-3.74-17.57-11.23-6.25-8.28-9.38-17.92-9.38-28.93,0-11.62,2.42-21.29,7.26-28.99,4.84-7.7,10.96-11.56,18.36-11.56,3.52,0,7.13,1.67,10.83,5.02v-7.13l10.7,4.49,22.45,1.85Zm-32.63,22.45c.18-5.02-.75-9.93-2.77-14.73-2.03-4.8-4.27-7.2-6.74-7.2-5.72,0-8.59,11.75-8.59,35.27s2.86,35.8,8.59,35.8c2.38,0,4.4-2.38,6.08-7.13,1.5-4.23,2.33-8.85,2.51-13.87l.92-28.13Z"></path><path class="cls-15" d="M376.44,541.82c-1.8-11.01-5.38-16.51-10.77-16.51-3.05,0-5.7,2.95-7.94,8.85-1.97,5.02-2.87,9.29-2.69,12.81l1.85,40.29,10.43,8.45-22.32-4.09-17.96,3.7,9.77-8.45,1.72-60.49-10.57-9.38,27.08,.53v13.87c2.99-10.3,7.09-15.45,12.28-15.45,2.64,0,5.06,.79,7.26,2.38l1.85,23.51Z"></path><path class="cls-15" d="M443.27,556.62c0,11.36-3.26,21.09-9.77,29.19-6.16,7.57-13.17,11.36-21,11.36-2.64,0-5.33-.53-8.06-1.59l-2.11,6.74,8.72,7.4-12.94-2.38-13.08,2.38,9.91-7.13,2.91-10.57c-4.93-3.52-8.9-8.28-11.89-14.26-3.26-6.52-4.89-13.56-4.89-21.13,0-11.1,3.43-20.87,10.3-29.32,6.43-8.01,13.3-12.02,20.61-12.02,2.02,0,4.09,.4,6.21,1.19l2.91-10.7,20.47,.26-9.64,5.02-3.7,11.36c4.4,3.96,7.97,8.81,10.7,14.53,2.91,6.25,4.36,12.81,4.36,19.68Zm-26.42-35.14c-1.41-2.11-2.95-3.16-4.62-3.16-3.43,0-6.3,4.39-8.59,13.18-1.94,7.55-2.91,15.77-2.91,24.64,0,6.15,.57,12.39,1.72,18.71l14.4-53.37Zm6.74,34.58c0-5.27-.4-10.59-1.19-15.94l-15.72,48.75c1.76,3.51,3.7,5.27,5.81,5.27,3.43,0,6.21-4.39,8.32-13.17,1.85-7.55,2.77-15.86,2.77-24.9Z"></path><path class="cls-15" d="M522.26,602.05l-19.55-5.41-17.83,3.3,9.51-7.53,.53-58.25c.09-4.05-.4-7.18-1.45-9.38-.88-1.85-1.94-2.77-3.17-2.77-3.61,0-7.4,7.31-11.36,21.93l1.19,37.25,6.6,8.45-18.76-4.36-20.08,3.83,11.49-8.45,2.91-58.12-11.49-8.45,27.74,.66v13.87c3.08-8.8,7.62-13.21,13.6-13.21,3.26,0,6.65,1.63,10.17,4.89,4.14,3.96,6.38,8.85,6.74,14.66l3.57,58.78,9.64,8.32Z"></path><path class="cls-15" d="M597.94,602.05l-19.55-5.41-17.83,3.3,9.51-7.53,.53-58.25c.09-4.05-.4-7.18-1.45-9.38-.88-1.85-1.94-2.77-3.17-2.77-3.61,0-7.4,7.31-11.36,21.93l1.19,37.25,6.6,8.45-18.76-4.36-20.08,3.83,11.49-8.45,2.91-58.12-11.49-8.45,27.74,.66v13.87c3.08-8.8,7.62-13.21,13.6-13.21,3.26,0,6.65,1.63,10.17,4.89,4.14,3.96,6.38,8.85,6.74,14.66l3.57,58.78,9.64,8.32Z"></path><path class="cls-15" d="M662.79,590.56l-12.94-4.89c-5.11,7.49-10.7,11.23-16.77,11.23-7.57,0-14.18-2.86-19.81-8.59-7.13-7.13-10.7-17.52-10.7-31.17,0-11.45,3.61-21.4,10.83-29.85,6.52-7.66,13.29-11.49,20.34-11.49s12.46,3.66,17.3,10.96c5.02,7.66,7.53,17,7.53,28,0,.62-.09,2.64-.26,6.08l-35.66-4.23c0,24.22,3.92,36.32,11.76,36.32,2.02,0,4.71-1.12,8.06-3.37,3.35-2.25,5.55-4.64,6.6-7.2l1.85-16.64,4.89,13.61,7,11.23Zm-20.61-36.59c.62-3.51,.92-7.81,.92-12.9,0-14.82-3.08-22.24-9.25-22.24-2.73,0-5.28,3.18-7.66,9.54-2.38,6.36-3.57,13.09-3.57,20.2l19.55,5.4Z"></path><path class="cls-15" d="M776.78,601.26l-17.96-2.38-13.74,5.68,4.76-5.94-16.77-41.21,.79,30.51,11.76,9.91-23.78-4.62-21.27,4.62,12.55-9.91,1.58-83.08-14.26-10.04,20.47,2.38,20.47-3.43-10.43,10.04,1.32,48.34,16.25-24.3-11.09-8.06,15.98,2.64,14.53-2.38-12.42,7.66-11.1,21.27,22.45,45.83,9.91,6.47Z"></path><path class="cls-15" d="M842.29,556.62c0,11.36-3.26,21.09-9.77,29.19-6.16,7.57-13.16,11.36-21,11.36-2.64,0-5.33-.53-8.06-1.59l-2.11,6.74,8.72,7.4-12.94-2.38-13.08,2.38,9.91-7.13,2.91-10.57c-4.93-3.52-8.9-8.28-11.89-14.26-3.26-6.52-4.89-13.56-4.89-21.13,0-11.1,3.43-20.87,10.3-29.32,6.43-8.01,13.3-12.02,20.61-12.02,2.02,0,4.09,.4,6.21,1.19l2.91-10.7,20.47,.26-9.64,5.02-3.7,11.36c4.4,3.96,7.97,8.81,10.7,14.53,2.91,6.25,4.36,12.81,4.36,19.68Zm-26.42-35.14c-1.41-2.11-2.95-3.16-4.62-3.16-3.43,0-6.3,4.39-8.59,13.18-1.94,7.55-2.91,15.77-2.91,24.64,0,6.15,.57,12.39,1.72,18.71l14.4-53.37Zm6.74,34.58c0-5.27-.4-10.59-1.19-15.94l-15.72,48.75c1.76,3.51,3.7,5.27,5.81,5.27,3.43,0,6.21-4.39,8.32-13.17,1.85-7.55,2.77-15.86,2.77-24.9Z"></path><path class="cls-15" d="M923.26,601.26l-17.96-2.38-13.74,5.68,4.76-5.94-16.77-41.21,.79,30.51,11.76,9.91-23.78-4.62-21.27,4.62,12.55-9.91,1.59-83.08-14.26-10.04,20.47,2.38,20.47-3.43-10.44,10.04,1.32,48.34,16.25-24.3-11.1-8.06,15.98,2.64,14.53-2.38-12.42,7.66-11.1,21.27,22.45,45.83,9.91,6.47Z"></path><path class="cls-15" d="M999.6,601.26l-17.96-2.38-13.74,5.68,4.76-5.94-16.77-41.21,.79,30.51,11.76,9.91-23.78-4.62-21.27,4.62,12.55-9.91,1.59-83.08-14.26-10.04,20.47,2.38,20.47-3.43-10.44,10.04,1.32,48.34,16.25-24.3-11.1-8.06,15.98,2.64,14.53-2.38-12.42,7.66-11.1,21.27,22.45,45.83,9.91,6.47Z"></path><path class="cls-15" d="M1063.13,590.56l-12.94-4.89c-5.11,7.49-10.7,11.23-16.77,11.23-7.57,0-14.18-2.86-19.81-8.59-7.13-7.13-10.7-17.52-10.7-31.17,0-11.45,3.61-21.4,10.83-29.85,6.52-7.66,13.29-11.49,20.34-11.49s12.46,3.66,17.3,10.96c5.02,7.66,7.53,17,7.53,28,0,.62-.09,2.64-.26,6.08l-35.66-4.23c0,24.22,3.92,36.32,11.75,36.32,2.03,0,4.71-1.12,8.06-3.37,3.34-2.25,5.55-4.64,6.6-7.2l1.85-16.64,4.89,13.61,7,11.23Zm-20.6-36.59c.62-3.51,.92-7.81,.92-12.9,0-14.82-3.08-22.24-9.25-22.24-2.73,0-5.28,3.18-7.66,9.54-2.38,6.36-3.57,13.09-3.57,20.2l19.55,5.4Z"></path><path class="cls-15" d="M1138.82,602.05l-19.55-5.41-17.83,3.3,9.51-7.53,.53-58.25c.09-4.05-.4-7.18-1.45-9.38-.88-1.85-1.94-2.77-3.17-2.77-3.61,0-7.4,7.31-11.36,21.93l1.19,37.25,6.6,8.45-18.76-4.36-20.08,3.83,11.49-8.45,2.91-58.12-11.49-8.45,27.74,.66v13.87c3.08-8.8,7.62-13.21,13.6-13.21,3.26,0,6.65,1.63,10.17,4.89,4.14,3.96,6.38,8.85,6.74,14.66l3.57,58.78,9.64,8.32Z"></path></g><g><path class="cls-12" d="M322.08,666.23c2.34-6.83,5.17-13.36,8.68-21.36-5.66,2.15-9.46,3.9-13.46,6.24-2.73,1.56-4.29,2.15-5.46,2.15-2.05,0-3.9-2.73-3.9-5.66,0-1.27,.49-2.54,1.46-3.41,1.95-1.76,11.02-5.66,18.34-7.71,8.88-2.54,18.92-3.9,29.36-3.9,6.24,0,9.46,.59,9.46,1.76,0,1.46-4.29,2.53-8.58,3.32-5.85,1.17-10.92,2.63-16.49,4.68-9.85,20.09-14.14,40.09-15.12,46.04-.68,4.49-1.27,10.44-6.54,10.44-2.73,0-4.39-1.76-4.39-4.68,0-3.8,3.02-16.68,6.63-27.9Z"></path><path class="cls-12" d="M376.6,661.84c2.83,0,5.17,1.85,6.44,5.17,1.85,4.88,3.02,11.32,3.02,16.68,0,4.88-1.46,9.85-3.51,11.9-1.37,1.37-5.46,2.83-8,2.83-1.27,0-2.15-.68-2.15-1.76,0-.68,.49-1.56,1.56-2.93,3.51-4.49,4.88-8.88,4.88-15.31,0-6.92-1.56-11.61-3.9-11.61s-8.88,6.14-12,9.36c-2.15,6.63-3.51,11.02-4.29,14.92-.78,3.22-1.66,7.41-5.46,7.41-2.54,0-4.29-2.05-4.29-4.97,0-3.9,3.32-15.51,7.8-27.22,5.27-13.75,12.19-28.39,18.63-28.39,.98,0,1.66,.78,1.66,2.05,0,1.17-.39,2.24-1.56,4.49-4.19,7.61-7.02,16.19-9.46,23.22,4.29-4.1,7.41-5.85,10.63-5.85Z"></path><path class="cls-12" d="M405.66,698.81c-9.75,0-14.44-2.63-14.44-8.19,0-7.12,5.66-19.7,11.41-25.46,2.34-2.24,4.58-3.02,9.27-3.02,6.54,0,8.1,1.17,10.44,7.8,3.22-5.66,4.58-8.19,8.68-8.19,1.27,0,1.95,.39,1.95,1.17,0,.49-2.54,7.9-3.02,9.46-1.27,4.29-3.12,12.29-3.41,19.31-.19,4.88-1.27,6.73-4,6.73-2.15,0-3.12-.78-4.19-3.22-2.34,2.63-5.56,3.61-12.68,3.61Zm12.58-17.65c0-8.29-2.73-15.71-5.76-15.71-.78,0-1.56,.29-2.24,.88-3.22,2.24-9.56,18.24-9.56,23.61,0,3.8,2.54,6.24,6.34,6.24,10.44,0,11.22-10.53,11.22-15.02Z"></path><path class="cls-12" d="M452.29,660.86c.88,0,1.46,.49,1.46,1.07,0,.49-.49,2.15-1.17,3.8-2.93,7.8-5.27,16.48-6.05,24.87-.49,5.76-2.24,8.39-5.66,8.39-2.54,0-3.9-2.24-3.9-6.34,0-5.46,1.85-13.27,5.17-21.95,1.56-4,3.8-9.85,10.14-9.85Zm-3.02-9.17c0-1.46,1.76-4.78,3.71-6.73,1.17-1.17,1.85-1.37,4.49-1.37,2.05,0,3.02,.29,3.02,1.17,0,.68-.39,1.46-2.05,4.78-1.76,3.32-2.05,3.9-6.44,3.9-1.66,0-2.73-.68-2.73-1.76Z"></path><path class="cls-12" d="M500.47,666.23c2.34-6.83,5.17-13.36,8.68-21.36-5.66,2.15-9.46,3.9-13.46,6.24-2.73,1.56-4.29,2.15-5.46,2.15-2.05,0-3.9-2.73-3.9-5.66,0-1.27,.49-2.54,1.46-3.41,1.95-1.76,11.02-5.66,18.34-7.71,8.88-2.54,18.92-3.9,29.36-3.9,6.24,0,9.46,.59,9.46,1.76,0,1.46-4.29,2.53-8.58,3.32-5.85,1.17-10.92,2.63-16.49,4.68-9.85,20.09-14.14,40.09-15.12,46.04-.68,4.49-1.27,10.44-6.54,10.44-2.73,0-4.39-1.76-4.39-4.68,0-3.8,3.02-16.68,6.63-27.9Z"></path><path class="cls-12" d="M530.61,698.81c-9.75,0-14.44-2.63-14.44-8.19,0-7.12,5.66-19.7,11.41-25.46,2.34-2.24,4.58-3.02,9.27-3.02,6.54,0,8.1,1.17,10.44,7.8,3.22-5.66,4.58-8.19,8.68-8.19,1.27,0,1.95,.39,1.95,1.17,0,.49-2.54,7.9-3.02,9.46-1.27,4.29-3.12,12.29-3.41,19.31-.2,4.88-1.27,6.73-4,6.73-2.15,0-3.12-.78-4.19-3.22-2.34,2.63-5.56,3.61-12.68,3.61Zm12.58-17.65c0-8.29-2.73-15.71-5.76-15.71-.78,0-1.56,.29-2.24,.88-3.22,2.24-9.56,18.24-9.56,23.61,0,3.8,2.54,6.24,6.34,6.24,10.44,0,11.22-10.53,11.22-15.02Z"></path><path class="cls-12" d="M571.57,683.49c-.68,3.41-.98,5.46-1.07,8.78-.29,4.29-.68,7.02-4.88,7.02-3.22,0-3.9-.97-3.9-5.66,0-19.41,14.53-50.04,17.95-53.55,1.66-1.66,4.49-2.73,6.93-2.73,1.37,0,1.95,.29,1.95,.98,0,.49-.49,1.66-1.27,3.02-1.95,3.41-8,16.29-13.66,33.56,10.53-9.85,17.65-13.07,19.7-13.07,.98,0,1.95,.88,1.95,1.85,0,3.02-8.49,9.17-13.56,12.87,.98,6.54,2.54,11.32,5.36,16.88,.98,1.76,1.46,3.02,1.46,3.71,0,.78-.88,1.66-1.85,1.66-2.73,0-7.9-9.75-10.54-18.34l-4.58,3.02Z"></path><path class="cls-12" d="M604.63,690.22c0,3.8,2.44,5.75,7.02,5.75s8.19-2.15,9.27-5.85c.29-.98,.39-1.17,.88-1.46,1.07-.59,3.71-1.07,6.15-1.07,1.95,0,2.83,.49,2.83,1.85,0,1.85-.98,3.9-2.83,5.56-3.71,3.41-13.27,4-18.34,4-.88,0-14.92,0-14.92-9.17,0-3.41,1.56-8.1,4.78-14.44,7.22-13.95,10.34-13.95,16.78-13.95,3.61,0,5.27,.49,6.54,1.85,3.12,3.61,6.14,11.12,6.14,15.22,0,3.02-4.88,3.32-12.19,3.32-4.39,0-6.34-.1-10.05-.49-1.17,2.63-2.05,6.54-2.05,8.88Zm9.56-11.8c5.46,0,7.61-.88,7.61-2.93,0-.68-1.56-10.54-5.37-10.54-3.12,0-6.05,7.02-8.58,13.17,2.44,.2,4.49,.29,6.34,.29Z"></path><path class="cls-12" d="M703.53,685.15c-3.12,11.02-5.66,13.66-10.44,13.66-2.54,0-4.2-1.56-4.2-3.9,0-1.37,.49-2.73,1.95-5.37,3.12-5.76,5.27-12,5.95-16.78-6.93-.98-16.58,1.07-23.7,3.12-1.76,6.05-2.83,11.02-3.51,15.12-.68,4.2-1.27,7.8-6.44,7.8-3.32,0-5.85-2.05-5.85-5.46,0-15.9,14.73-46.14,19.61-53.45,3.12-4.58,6.34-6.24,12.78-6.24,4.19,0,7.02,.78,8.49,2.34,4.39,4.68,7.8,18.73,7.8,30.92,0,6.24-.88,12.29-2.44,18.24Zm-28.39-17.66c3.02-.1,7.32-.29,9.36-.29,4.2,0,8.29,.49,13.07,1.46,.88-5.17,.97-6.83,.97-10.44,0-5.07-1.85-20.78-7.71-20.78-5.07,0-12.29,18.24-15.71,30.04Z"></path><path class="cls-12" d="M724.69,698.71c-9.56,0-13.95-2.93-13.95-9.17,0-4.1,1.36-8.78,4.39-14.53,6.63-12.97,10.53-13.46,14.73-13.46,1.17,0,1.66,.2,1.66,.78,0,.39-.68,1.56-1.46,2.54-2.34,2.73-9.66,14.24-9.66,24,0,5.56,1.46,7.32,5.85,7.32,2.54,0,4.1-.39,5.37-1.36-1.46-2.54-2.05-4.49-2.05-6.44,0-2.93,2.24-14.44,11.31-14.44,.88,0,1.66,.49,1.66,1.07,0,.29-.29,1.27-.68,2.15-1.66,4.39-2.93,9.36-2.93,12.29,0,3.8,2.05,6.44,4.88,6.44,4.49,0,7.9-6.05,7.9-13.75,0-4.98-2.05-12.49-4.68-17.07-.49-.78-.78-1.56-.78-1.85,0-.78,.59-1.27,1.85-1.17,1.66,0,3.32,.68,4.29,1.76,3.8,4.29,7.51,15.22,7.51,22.24,0,7.71-5.85,12.78-14.83,12.78-3.41,0-7.51-.78-10.73-2.05-2.44,1.36-5.17,1.95-9.66,1.95Z"></path><path class="cls-12" d="M778.04,698.81c-9.75,0-14.44-2.63-14.44-8.19,0-7.12,5.66-19.7,11.41-25.46,2.34-2.24,4.59-3.02,9.27-3.02,6.54,0,8.1,1.17,10.44,7.8,3.22-5.66,4.58-8.19,8.68-8.19,1.27,0,1.95,.39,1.95,1.17,0,.49-2.54,7.9-3.02,9.46-1.27,4.29-3.12,12.29-3.41,19.31-.2,4.88-1.27,6.73-4,6.73-2.15,0-3.12-.78-4.2-3.22-2.34,2.63-5.56,3.61-12.68,3.61Zm12.58-17.65c0-8.29-2.73-15.71-5.75-15.71-.78,0-1.56,.29-2.24,.88-3.22,2.24-9.56,18.24-9.56,23.61,0,3.8,2.53,6.24,6.34,6.24,10.44,0,11.22-10.53,11.22-15.02Z"></path><path class="cls-12" d="M819.59,698.81c-6.24,0-11.02-4.58-11.02-10.53,0-3.71,1.46-8.39,4.49-14.24,5.46-10.53,8.68-12.68,12.68-12.68,1.76,0,2.93,.39,2.93,1.07,0,.49-.97,2.15-1.95,3.51-3.41,4.39-9.46,15.51-9.46,22.83,0,3.9,1.76,5.76,5.37,5.76,5.27,0,8.97-4.68,14.34-18.05,4-9.95,6.63-15.02,13.07-15.02,.88,0,1.17,.29,1.17,1.17,0,.78-.49,2.63-1.36,5.07-2.05,5.46-6.73,21.07-9.85,37.94-3.51,18.14-7.51,21.85-25.65,21.85-8.68,0-12.68-2.73-12.68-8.49,0-2.15,1.07-8.97,3.32-8.97,1.76,0,6.24,3.61,6.24,5.56,.1,4.78,.49,9.07,6.73,9.07,2.54,0,5.56-1.27,7.51-3.02,3.41-3.12,5.17-7.41,6.44-15.31,.59-3.8,4.2-17.17,5.76-22.83-5.66,11.12-10.63,15.31-18.05,15.31Z"></path></g></g></g></svg>